# xmcd
#
# Track frame offsets: 
#        150
#        22975
#        38947
#        71237
#        87907
#        102938
#        122324
#        138333
#        163683
#        193280
#        213371
#        223957
#
# Disc length: 2994 seconds
#
# Revision: 0
# Processed by: cddbd v1.5.2PL0 Copyright (c) Steve Scherf et al.
# Submitted via: ExactAudioCopy v1.0b3
#
DISCID=b00bb00c
DTITLE=Sneekers - Too Hot To Handle Tray
DYEAR=2001
DGENRE=Blues
TTITLE0=TOO HOT TO HANDLE
TTITLE1=BAD BOY
TTITLE2=BLUES OF THE WORLD
TTITLE3=TOO LATE
TTITLE4=HOLE IN MY POCKET
TTITLE5=LET ME LOVE YOU
TTITLE6=ALL YOUR LOVIN’
TTITLE7=T BONE SHUFFLE
TTITLE8=HELP ME
TTITLE9=TIRED OF TRYING
TTITLE10=ROCKIN’ ROBIN
TTITLE11=ECHO
EXTD=
EXTT0=
EXTT1=
EXTT2=
EXTT3=
EXTT4=
EXTT5=
EXTT6=
EXTT7=
EXTT8=
EXTT9=
EXTT10=
EXTT11=
PLAYORDER=
